<?xml version="1.0" encoding="utf-8"?>
<!-- Generator: Adobe Illustrator 20.1.0, SVG Export Plug-In . SVG Version: 6.00 Build 0)  -->
<svg version="1.1" id="Layer_1" xmlns="http://www.w3.org/2000/svg" xmlns:xlink="http://www.w3.org/1999/xlink" x="0px" y="0px"
	 viewBox="0 0 251 251" style="enable-background:new 0 0 251 251;" xml:space="preserve">
<style type="text/css">
	.st0{fill:none;stroke:#ffffff;stroke-width:2;stroke-linecap:round;stroke-linejoin:round;stroke-miterlimit:10;}
</style>
<g>
	<path class="st0" d="M15.5,32.5c-4.3,4.2-8.6,8.4-13,12.5c-1.9,1.8-1.9,3.2,0,5.1c3.8,3.6,7.3,7.4,11.1,10.9c1.7,1.6,1.7,2.5,0,4.1
		c-3.3,3-6.2,6.5-9.6,9.4c-2.9,2.6-3.3,4.4,0,7.1c3.5,2.8,6.4,6.3,9.6,9.4c2.2,2.1,2.2,3.9,0,6c-3.7,3.6-7.3,7.4-11.1,10.9
		c-1.7,1.6-1.7,2.5,0,4.1c4.3,4.2,8.4,8.6,12.5,13"/>
	<path class="st0" d="M172,15c-4.3-4.2-8.8-8.2-13-12.5c-1.6-1.7-2.5-1.7-4.1,0c-3.7,4-7.5,7.8-11.5,11.5c-1.7,1.6-1.7,2.5,0,4.1
		c3.6,3.3,6.9,7.1,10.6,10.4c2.5,2.3,2.4,3.8,0,6.1c-8.8,8.5-17.3,17.4-26.1,25.9c-2.1,2-2.2,3.1,0,5.1c3.7,3.3,7,7,10.6,10.4
		c1.9,1.8,1.9,3.2,0,5.1c-4.1,3.9-8,8-12,12"/>
	<path class="st0" d="M93,189c-4.2,4.3-8.4,8.6-12.5,13c-1.6,1.7-2.5,1.7-4.1,0c-3.7-4-7.7-7.6-11.4-11.6c-1.8-1.9-3.2-1.9-5.1,0
		c-3.4,3.6-7,7-10.4,10.6c-1.8,1.9-3.2,1.9-5.1,0c-3.4-3.6-7-7-10.4-10.6c-1.8-1.9-3.2-1.9-5.1,0c-3.4,3.6-6.9,7.1-10.5,10.5
		c-1.9,1.8-1.9,3.2,0,5.1c4.3,4.2,8.4,8.6,12.5,13"/>
	<path class="st0" d="M189,1c4.2,4.3,8.2,8.8,12.5,13c1.7,1.6,1.7,2.5,0,4.1c-3.6,3.3-6.9,7.1-10.6,10.4c-2.5,2.3-2.4,3.8,0,6.1
		c8,7.7,15.7,15.6,23.5,23.4c6.2,6.2,12.4,12.3,18.5,18.5c1.6,1.7,2.5,1.7,4.1,0c4.2-4.3,8.6-8.4,13-12.5"/>
	<path class="st0" d="M156,188.5c-15,15.2-30,30.3-45,45.5"/>
	<path class="st0" d="M126,111c4.3,4.2,8.8,8.2,12.9,12.6c0.7,0.7,0.7,3.1,0,3.8c-3.5,3.8-7.3,7.4-10.9,11.1c-1.8,1.9-3.2,1.9-5.1,0
		c-3.4-3.6-7-7-10.4-10.6c-1.8-1.9-3.2-1.9-5.1,0c-4.1,4.3-8.3,8.4-12.5,12.5"/>
	<path class="st0" d="M33,111c4,3.8,8,7.7,12,11.5c2.2,2.1,2.2,3.9,0,6c-3.4,3.3-6.7,6.6-10,10c-2.1,2.2-4,2.2-6,0
		c-4-4.2-8-8.3-12-12.5"/>
	<path class="st0" d="M62,15c-4.2-4.3-8.2-8.8-12.6-12.9c-0.7-0.7-3.1-0.7-3.8,0C41.4,5.9,37.5,10,33.5,14c-1.9,1.8-1,3.1,0.5,4.5
		c4.4,4.1,8.7,8.3,13,12.5"/>
	<path class="st0" d="M250,189c-4.2,4-8.3,8.1-12.5,12c-2,1.8-1.9,3.2,0,5.1c3.8,3.6,7.3,7.4,11.1,10.9c2,1.9,1.6,2.8-0.4,4.6
		c-4.4,3.9-8.4,8.2-12.6,12.4"/>
	<path class="st0" d="M78,32.5c-4.2,4.2-8.3,8.4-12.5,12.5c-1.9,1.8-1.9,3.2,0,5.1c3.8,3.6,7.3,7.4,11.1,10.9c1.7,1.6,1.7,2.5,0,4.1
		c-4.5,4.2-8.7,8.6-13,13"/>
	<path class="st0" d="M236,33c4.2,4.3,8.2,8.8,12.6,12.9c1,1,1.8,1.3,0.5,2.6c-4.2,4.1-8.3,8.4-12.6,12.4c-0.7,0.7-3.1,0.7-3.8,0
		c-4.3-4.1-8.4-8.6-12.6-12.9"/>
	<path class="st0" d="M15.5,142c-4.2,4.2-8.3,8.4-12.5,12.5c-1.9,1.8-1.9,3.2,0,5.1c3.6,3.4,7,7,10.6,10.4c1.9,1.8,1.9,3.2,0,5.1
		c-4.2,3.9-8.4,8-12.5,12"/>
	<path class="st0" d="M188.5,95c4.2,4.2,8.3,8.4,12.5,12.5c1.9,1.8,1.9,3.2,0,5.1c-3.6,3.4-7,7-10.6,10.4c-1.9,1.8-1.9,3.2,0,5.1
		c4.2,3.9,8.4,8,12.5,12"/>
	<path class="st0" d="M188.5,236c4.2,4.2,8.4,8.3,12.5,12.5c1.8,1.9,3.2,1.9,5.1,0c3.6-3.8,7.2-7.5,11-11c2-1.9,1.7-3.3,0-5
		c-3.9-3.8-7.6-7.8-11.6-11.4c-0.7-0.7-3.2-0.7-3.8,0c-4.3,4.3-8.3,9-12.6,13.4c-5,5-10.3,9.7-15.4,14.6c-1.3,1.3-1.6,0.6-2.6-0.5
		c-4.2-4.5-8.6-8.7-12.9-13.1"/>
	<path class="st0" d="M48,64c12,11.8,24,23.6,36,35.5c7.2,7.1,14.4,14.3,21.5,21.5c1.5,1.5,2.7,3.3,4,5"/>
	<path class="st0" d="M79,220c9.5,9.3,19.1,18.6,28.4,28.1c2,2.1,3.1,2.1,5.1,0c4.3-4.4,8.9-8.4,13.4-12.6"/>
	<path class="st0" d="M171,32.5c-8.8,8.8-17.7,17.6-26.5,26.5c-3.7,3.7-3.7,4.3,0,8c3.8,3.9,7.7,7.7,11.5,11.5"/>
	<path class="st0" d="M187,204c-8,8.2-16,16.4-24,24.5c-6.5,6.5-13.1,12.9-19.4,19.6c-2,2.1-3.2,2.1-5.1,0
		c-3.3-3.7-6.9-7.1-10.5-10.5c-1.9-1.8-1.9-3.2,0-5.1c4.1-4.1,8-8.3,12-12.5"/>
	<path class="st0" d="M15,1C11,5.2,7.1,9.4,3,13.5c-1.9,1.9-1.9,3.2,0,5.1C17.7,33,32.3,47.5,47,62"/>
	<path class="st0" d="M1,126c9.3,9.5,18.7,19,28,28.5c1.4,1.5,2.7,2.4,4.5,0.5c9.5-9.5,19-19,28.5-28.5c0.3-0.3,0.4-1,0.5-1.5"/>
	<path class="st0" d="M234.5,157.5c-8.3,8.2-16.7,16.3-25,24.5c-1.8,1.7-3.7,3.3-5.5,5"/>
	<path class="st0" d="M94,156c-4.3-4.2-8.7-8.3-13-12.5c-1.9-1.9-3.2-1.9-5.1,0c-9.3,9.6-18.6,19-28,28.5"/>
	<path class="st0" d="M203,64c-4.3,4.2-8.8,8.2-13,12.5c-1.6,1.7-2.4,1.7-4.1,0c-4.5-4.5-9.3-8.7-13.9-13.1"/>
	<path class="st0" d="M219,189c-10,10-20,20-30,30"/>
	<path class="st0" d="M220,95c9.3,9.5,18.6,19.1,28.1,28.4c2.1,2,2.2,3.2,0,5.1c-4.3,3.8-8.4,8-12.5,12"/>
	<path class="st0" d="M110.5,187c4-4,7.9-8.1,12.1-11.9c2.2-2,2.1-3.1,0-5.1c-8.1-7.9-16.1-15.9-24.1-23.9c-6-6-12-12-18-18
		c-1.9-1.9-3.2-1.9-5.1,0c-3.8,4.1-7.6,8-11.5,12"/>
	<path class="st0" d="M173,1c4.2,4,8.3,8.1,12.5,12c2,1.8,1.9,3.2,0,5.1c-4.4,4.2-8.7,8.6-13,13"/>
	<path class="st0" d="M204,95c4.3,4.2,8.6,8.4,13,12.5c1.9,1.8,1.9,3.2,0,5.1c-3.8,3.6-7.3,7.4-11.1,10.9c-1.7,1.6-1.7,2.5,0,4.1
		c3.8,3.5,7.3,7.4,11.1,10.9c1.9,1.8,1.9,3.2,0,5.1c-3.6,3.4-7.2,6.8-10.5,10.5c-2,2.2-3.1,2.1-5.1,0c-9.2-9.5-18.6-18.7-27.9-28.1"
		/>
	<path class="st0" d="M219,141.5c4.5,4.2,9.1,8.2,13.5,12.5c5.5,5.5,10.5,11.5,16.1,16.9c1.6,1.5,1.7,2.3,0.4,3.6
		c-4.3,4.2-8.7,8.3-13,12.5"/>
	<path class="st0" d="M93.5,172c-4.2-4.2-8.5-8.2-12.4-12.6c-2-2.2-3.1-2.1-5.1,0c-8.2,8.5-16.7,16.6-24.9,25.1
		c-2.8,2.9-4.5,3-7.1,0c-3.6-4.1-7.6-7.7-11.4-11.6"/>
	<path class="st0" d="M48,17c4.3,4.2,8.8,8.2,12.9,12.6c0.7,0.7,0.7,3.1,0,3.8c-3.8,4.2-7.8,8.2-12,12c-0.7,0.7-3.1,0.7-3.8,0
		C40.9,41.4,37,37.2,33,33"/>
	<path class="st0" d="M1.5,220.5c4,3.8,8,7.7,12,11.5c2.2,2.1,2.2,4,0,6c-4.2,4-8.3,8-12.5,12"/>
	<path class="st0" d="M234,189c-4.2,4-8.3,8.1-12.5,12c-2,1.8-1.9,3.2,0,5.1c4.3,4.2,8.4,8.6,12.5,13"/>
	<path class="st0" d="M218,158c-14.5,14.3-29,28.6-43.5,43c-1.9,1.9-3.2,1.9-5.1,0c-3.9-4.1-8-8-12-12"/>
	<path class="st0" d="M110.5,189c4.3,4.3,8.6,8.8,13,13c1.7,1.6,1.7,2.5,0,4.1c-4.3,4.2-8.4,8.6-12.5,13"/>
	<path class="st0" d="M95,32c4.2,4.3,8.4,8.6,12.5,13c1.8,1.9,3.2,1.9,5.1,0c3.9-4.1,8-8,12-12"/>
	<path class="st0" d="M78,250c-4.3-4.2-8.8-8.2-13-12.5c-1.6-1.7-2.5-1.7-4.1,0c-4.2,4.3-8.6,8.4-13,12.5"/>
	<path class="st0" d="M124.5,95c-4,4-7.9,8.1-12,12c-1.9,1.8-1.9,3.2,0,5.1c4.3,4.2,8.4,8.6,12.5,13"/>
	<path class="st0" d="M187.5,142c-4.2,4.2-8.3,8.4-12.5,12.5c-1.9,1.8-1.9,3.2,0,5.1c4.1,4.1,8,8.3,12,12.5"/>
	<path class="st0" d="M111,17c9.7,9.8,19.3,19.7,29,29.5"/>
	<path class="st0" d="M250,15c-4.3-4.2-8.8-8.2-13-12.5c-1.6-1.7-2.5-1.7-4.1,0c-4.2,4.5-8.6,8.7-13,13"/>
	<path class="st0" d="M31.5,95c-4.3,4.3-8.6,8.8-13,13c-1.7,1.6-1.7,2.5,0,4.1c4.3,4.2,8.4,8.6,12.5,13"/>
	<path class="st0" d="M95,79.5c4.2,4.2,8.3,8.4,12.5,12.5c1.9,1.8,1.9,3.2,0,5.1c-4.1,3.9-8,8-12,12"/>
	<path class="st0" d="M30.5,1.5c-4,4.2-7.9,8.4-12,12.5c-1.7,1.6-1.7,2.5,0,4.1c4.3,4.2,8.4,8.6,12.5,13"/>
	<path class="st0" d="M30.5,64c-4,4-7.9,8.1-12,12c-1.9,1.8-1.9,3.2,0,5.1c4.3,4.1,8.4,8.3,12.5,12.5"/>
	<path class="st0" d="M111,142c9.2,9.3,18.3,18.7,27.6,27.9c2.1,2,2.2,3.1,0,5.1c-3.8,3.5-7.3,7.4-11.1,10.9c-1.7,1.6-1.7,2.5,0,4.1
		c4.3,4,8.4,8.3,12.5,12.5"/>
	<path class="st0" d="M173,48c4.3,4.2,8.8,8.2,13,12.5c1.6,1.7,2.5,1.7,4.1,0c4-4.3,8.3-8.4,12.5-12.5"/>
	<path class="st0" d="M15,189c-3.7,3.8-7.2,7.9-11.1,11.4c-2.6,2.4-2.8,3.7,0,6.2c4,3.5,7.4,7.6,11.1,11.4"/>
	<path class="st0" d="M64,173.5c4,4,8.1,7.9,12,12c1.8,1.9,3.2,1.9,5.1,0c3.9-4.1,8-8,12-12"/>
	<path class="st0" d="M17,48c13,13.2,26,26.3,39,39.5c12.3,12.5,24.7,25,37,37.5"/>
	<path class="st0" d="M172,111c-10,10-20,20-30,30c-5.3,5.2-10.7,10.3-16,15.5"/>
	<path class="st0" d="M187,111c-10,9.7-20,19.3-30,29"/>
	<path class="st0" d="M187.5,187.5c-10-9.8-20-19.7-30-29.5"/>
	<path class="st0" d="M33,205c3.8,4,7.5,8.1,11.6,11.9c2.1,2,2.1,3.1,0,5.1c-8.8,8.5-17.4,17.3-26,26c-0.6,0.6-1,1.3-1.5,2"/>
	<path class="st0" d="M78.5,110.5c-4.2,4-8.5,7.9-12.4,12.1c-2.3,2.4-3.8,2.4-6.1,0c-9-9.3-18.3-18.4-27.4-27.5"/>
	<path class="st0" d="M64,218.5c4.2-4.2,8.4-8.2,12.5-12.5c1.6-1.7,2.5-1.7,4.1,0c3.5,3.8,7.3,7.4,10.9,11.1c1.7,1.7,3.2,2.1,5,0
		c4.1-4.4,8.3-8.7,12.5-13"/>
	<path class="st0" d="M234,125c-5-4.8-10-9.7-15-14.5"/>
	<path class="st0" d="M47.5,203c4.8,5.2,9.7,10.3,14.5,15.5"/>
	<path class="st0" d="M220,126c9.9,9.8,19.8,19.7,29.8,29.5"/>
	<path class="st0" d="M79,48c4.3,4.2,8.7,8.3,13,12.5c1.7,1.6,1.7,3.4,0,5c-4.3,4.2-8.7,8.3-13,12.5"/>
	<path class="st0" d="M157.5,48c4.2,4.2,8.3,8.4,12.5,12.5c1.9,1.8,1.9,3.2,0,5.1c-4.3,4.1-8.4,8.3-12.5,12.5"/>
	<path class="st0" d="M47.5,47c4.8,5,9.7,10,14.5,15"/>
	<path class="st0" d="M234,47c-4.3-4.5-8.6-9-13.1-13.4c-0.5-0.5-2.4-0.5-2.9,0c-4.6,4.6-9.1,9.3-13.6,13.9"/>
	<path class="st0" d="M109,63.5c-9.7,10-19.3,20-29,30"/>
	<path class="st0" d="M111,1c8,8.2,16,16.3,24,24.5c1.7,1.8,3.3,3.7,5,5.5"/>
	<path class="st0" d="M126.5,95c10,10,20,20,30,30"/>
	<path class="st0" d="M156,157.5c-4.3,4.3-8.6,8.8-13,13c-1.7,1.6-1.7,2.5,0,4.1c4.5,4.2,8.7,8.6,13,13"/>
	<path class="st0" d="M79,236c5,4.7,10,9.3,15,14"/>
	<path class="st0" d="M189,157c4.8,4.8,9.7,9.7,14.5,14.5"/>
	<path class="st0" d="M109.5,157.5c-5,4.8-10,9.7-15,14.5"/>
	<path class="st0" d="M47,236c-5,4.7-10,9.3-15,14"/>
	<path class="st0" d="M171,218.5c-4.2-4.2-8.4-8.2-12.5-12.5c-1.6-1.7-2.5-1.7-4.1,0c-4,4.4-8.3,8.7-12.5,13"/>
	<path class="st0" d="M218.5,64c-9.8,9.8-19.7,19.7-29.5,29.5"/>
	<path class="st0" d="M220,79c4.2,4.3,8.4,8.6,12.5,13c1.6,1.7,2.4,1.7,4.1,0c4.3-4.3,8.8-8.4,13.2-12.6"/>
	<path class="st0" d="M79.5,1.5C89.3,11.3,99.2,21.2,109,31"/>
	<path class="st0" d="M204,1c4.8,4.7,9.7,9.3,14.5,14"/>
	<path class="st0" d="M95,1c4.7,4.7,9.3,9.3,14,14"/>
	<path class="st0" d="M203,189c-4.7,4.7-9.3,9.3-14,14"/>
	<path class="st0" d="M109,188.5c-4.7,4.8-9.3,9.7-14,14.5"/>
	<path class="st0" d="M173,32.5c4.7,4.8,9.3,9.7,14,14.5"/>
	<path class="st0" d="M236,235.5c4.7,4.8,9.3,9.7,14,14.5"/>
	<path class="st0" d="M220,220c4.7,4.8,9.3,9.7,14,14.5"/>
	<path class="st0" d="M187,220c-4.7,4.7-9.3,9.3-14,14"/>
	<path class="st0" d="M156,220c-4.7,4.7-9.3,9.3-14,14"/>
	<path class="st0" d="M64,1c4.7,4.7,9.3,9.3,14,14"/>
	<path class="st0" d="M63.5,220c4.8,4.7,9.7,9.3,14.5,14"/>
	<path class="st0" d="M62.5,220c-4.8,4.7-9.7,9.3-14.5,14"/>
	<path class="st0" d="M64,17c4.8,4.7,9.7,9.3,14.5,14"/>
	<path class="st0" d="M236,17c4.7,4.7,9.3,9.3,14,14"/>
	<path class="st0" d="M218.5,17c-4.8,4.7-9.7,9.3-14.5,14"/>
	<path class="st0" d="M220,16.5c4.7,4.8,9.3,9.7,14,14.5"/>
	<path class="st0" d="M157,17c4.8,4.7,9.7,9.3,14.5,14"/>
	<path class="st0" d="M17,220c4.8,4.7,9.7,9.3,14.5,14"/>
	<path class="st0" d="M249.8,95.5c-4.8,4.7-9.5,9.3-14.2,14"/>
	<path class="st0" d="M187.5,95c-4.8,4.7-9.7,9.3-14.5,14"/>
	<path class="st0" d="M157.5,80c4.2,4.2,8.2,8.4,12.5,12.5c1.7,1.6,1.7,2.5,0,4.1c-4.4,4-8.7,8.3-13,12.5"/>
	<path class="st0" d="M156,95c-4.8,4.7-9.7,9.3-14.5,14"/>
	<path class="st0" d="M156,79.5c-4.7,4.8-9.3,9.7-14,14.5"/>
	<path class="st0" d="M173,79c4.7,4.8,9.3,9.7,14,14.5"/>
	<path class="st0" d="M172,142c-4.8,4.7-9.7,9.3-14.5,14"/>
	<path class="st0" d="M234,173c-4.7,4.7-9.3,9.3-14,14"/>
	<path class="st0" d="M125,48c-4.8,4.7-9.7,9.3-14.5,14"/>
	<path class="st0" d="M31,172.5c-4.7,4.8-9.3,9.7-14,14.5"/>
	<path class="st0" d="M95,48c4.7,4.8,9.3,9.7,14,14.5"/>
	<path class="st0" d="M111,63.5c4.7,4.8,9.3,9.7,14,14.5"/>
	<path class="st0" d="M17,157c4.7,4.8,9.3,9.7,14,14.5"/>
	<path class="st0" d="M234,235.5c-4.5,4.8-9,9.5-13.5,14.2"/>
	<path class="st0" d="M95,173.5c4.7,4.7,9.3,9.3,14,14"/>
	<path class="st0" d="M171.5,173c-4.7,4.7-9.3,9.3-14,14"/>
	<path class="st0" d="M79.5,33c4.5,4.7,9,9.3,13.5,14"/>
	<path class="st0" d="M46.5,79c-4.7,4.7-9.3,9.3-14,14"/>
	<path class="st0" d="M140,1c-4.5,4.7-9,9.3-13.5,14"/>
	<path class="st0" d="M142.5,142c4.7,4.7,9.3,9.3,14,14"/>
	<path class="st0" d="M93.5,17c-4.7,4.7-9.3,9.3-14,14"/>
	<path class="st0" d="M109,220c-4.7,4.5-9.3,9-14,13.5"/>
	<path class="st0" d="M111,79c4.5,4.7,9,9.3,13.5,14"/>
	<path class="st0" d="M204.5,79c4.5,4.7,9,9.3,13.5,14"/>
	<path class="st0" d="M48.5,142c4.7,4.7,9.3,9.3,14,14"/>
	<path class="st0" d="M205,204.5c4.3,4.5,8.7,9,13,13.5"/>
	<path class="st0" d="M46,158c-4.5,4.3-9,8.7-13.5,13"/>
	<path class="st0" d="M62,95.5c-4.5,4.5-9,9-13.5,13.5"/>
</g>
</svg>
